<?xml version="1.0" standalone="no"?>
<!DOCTYPE svg PUBLIC "-//W3C//DTD SVG 20010904//EN"
 "http://www.w3.org/TR/2001/REC-SVG-20010904/DTD/svg10.dtd">
<svg version="1.0" xmlns="http://www.w3.org/2000/svg"
 width="577.000000pt" height="577.000000pt" viewBox="0 0 577.000000 577.000000"
 preserveAspectRatio="xMidYMid meet">
<metadata>
Created by potrace 1.11, written by Peter Selinger 2001-2013
</metadata>
<g transform="translate(0.000000,577.000000) scale(0.100000,-0.100000)"
fill="#000000" stroke="none">
<path d="M2709 5645 c-2 -2 -28 -6 -57 -9 -29 -3 -63 -8 -75 -11 -12 -2 -38
-7 -57 -9 -42 -6 -227 -53 -255 -65 -114 -47 -184 -74 -202 -78 -13 -3 -23 -8
-23 -12 0 -4 -16 -13 -35 -20 -19 -7 -35 -17 -35 -22 0 -6 -4 -8 -9 -5 -5 3
-24 -5 -42 -17 -19 -13 -53 -34 -76 -47 -24 -13 -43 -27 -43 -32 0 -4 -5 -8
-11 -8 -14 0 -149 -101 -149 -112 0 -4 -5 -8 -10 -8 -6 0 -21 -10 -34 -22 -13
-13 -41 -39 -62 -59 -149 -138 -329 -381 -399 -539 -11 -25 -24 -52 -30 -60
-11 -17 -19 -38 -62 -160 -42 -119 -56 -162 -59 -185 -1 -11 -3 -20 -4 -20 -2
0 -4 -11 -14 -60 -17 -83 -25 -144 -31 -245 -4 -58 -10 -79 -27 -97 -12 -13
-25 -23 -30 -23 -5 0 -14 -5 -21 -10 -7 -6 -30 -24 -52 -40 -22 -16 -45 -33
-50 -37 -152 -114 -312 -289 -435 -475 -48 -72 -173 -301 -170 -310 1 -2 -4
-16 -10 -33 -46 -117 -92 -272 -106 -360 -3 -20 -7 -46 -9 -57 -20 -103 -27
-460 -11 -553 3 -22 9 -58 13 -80 11 -73 12 -79 32 -155 93 -354 259 -646 515
-903 100 -101 306 -267 331 -267 8 0 15 -4 17 -8 4 -10 72 -49 163 -95 106
-53 140 -67 249 -104 105 -35 177 -54 265 -69 18 -3 43 -8 55 -10 130 -27 468
-26 619 1 15 3 37 7 50 9 51 9 203 47 222 55 11 5 49 19 85 31 36 13 108 43
160 67 l96 44 89 -41 c130 -61 194 -86 270 -107 56 -15 176 -45 200 -49 17 -2
41 -7 55 -9 163 -28 478 -27 625 1 17 3 39 7 50 9 21 3 85 18 170 40 95 24
242 82 360 142 82 42 238 138 275 170 8 7 47 38 85 69 262 212 491 544 599
869 42 127 47 144 50 168 2 12 6 29 9 37 5 15 21 103 33 185 8 56 13 438 6
450 -4 5 -8 28 -9 50 -12 140 -90 408 -167 570 -164 347 -403 617 -735 832 -4
3 -8 29 -16 118 -3 33 -8 77 -11 98 -3 20 -7 47 -9 60 -8 62 -60 272 -73 291
-3 6 -7 18 -9 26 -6 44 -128 297 -188 391 -106 165 -235 317 -356 420 -28 24
-65 57 -82 72 -60 54 -239 166 -350 221 -197 97 -443 174 -569 179 -21 1 -38
4 -38 8 0 3 -10 6 -22 7 -47 4 -416 11 -419 7z"/>
</g>
</svg>
